START RECORD GO HERE.                                                   S      1
1H,,1H;,20HCNEXT - IGES PRODUCT,15Hone crystal.igs,44HIBM CATIA IGES - CG      1
ATIA Version 5 Release 16 ,27HCATIA Version 5 Release 16 ,32,75,6,75,15,G      2
71HTranches slice 2D et axes generaux detecteurs - septembre 2005 - 2704G      3
06,1.0,2,2HMM,1000,1.0,15H20060612.123838,0.001,10000.0,8HRosierph,3HIPNG      4
,11,0,15H20060612.123838,;                                              G      5
     406       1       0       0       0       0       0       000010201D      1
     406       0       0       1      15                               0D      2
     110       2       0       0       0       0       0       001010001D      3
     110       0       0       2       0                               0D      4
     110       4       0       0       0       0       0       001010001D      5
     110       0       0       2       0                               0D      6
     110       6       0       0       0       0       0       001010001D      7
     110       0       0       2       0                               0D      8
     110       8       0       0       0       0       0       001010001D      9
     110       0       0       2       0                               0D     10
     110      10       0       0       0       0       0       001010001D     11
     110       0       0       2       0                               0D     12
     110      12       0       0       0       0       0       001010001D     13
     110       0       0       2       0                               0D     14
     110      14       0       0       0       0       0       001010001D     15
     110       0       0       2       0                               0D     16
     102      16       0       0   10000       0       0       000000000D     17
     102       0       0       1       0                               0D     18
406,1,23HPolydroite avec coin.40,0,0;                                  1P      1
110,-0.3,842.1202082,2076.157993,-0.3,861.2323478,2070.265183,0,       3P      2
0;                                                                     3P      3
110,-0.3,861.2323478,2070.265183,-20.23362313,861.2323478,             5P      4
2070.265183,0,0;                                                       5P      5
110,-20.23362313,861.2323478,2070.265183,-20.23362313,                 7P      6
842.1202082,2076.157993,0,0;                                           7P      7
110,-20.23362313,842.1202082,2076.157993,-21.724,901.0483701,          9P      8
2267.279608,0,0;                                                       9P      9
110,-21.724,901.0483701,2267.279608,-21.724,921.521499,               11P     10
2260.967167,0,0;                                                      11P     11
110,-21.724,921.521499,2260.967167,-0.3,921.521499,2260.967167,       13P     12
0,0;                                                                  13P     13
110,-0.3,921.521499,2260.967167,-0.3,901.0483701,2267.279608,0,       15P     14
0;                                                                    15P     15
102,7,3,5,7,9,11,13,15,0,1,1;                                         17P     16
S      1G      5D     18P     16                                        T      1
